name C:\Users\u0101727\Documents\MyRepositories\3dpredictsim_mobilecap/Results/TrackSim_mtp/IK_c33_99.mot																																																																																																																															
datacolumns 128																																																																																																																															
datarows 4																																																																																																																															
range 1.6 1.66																																																																																																																															
endheader																																																																																																																															
time	pelvis_tilt	pelvis_list	pelvis_rotation	pelvis_tx	pelvis_ty	pelvis_tz	hip_flexion_l	hip_adduction_l	hip_rotation_l	hip_flexion_r	hip_adduction_r	hip_rotation_r	knee_angle_l	knee_adduction_l	knee_angle_r	knee_adduction_r	ankle_angle_l	ankle_angle_r	subtalar_angle_l	subtalar_angle_r	mtp_angle_l	mtp_angle_r	lumbar_extension	lumbar_bending	lumbar_rotation	arm_flex_l	arm_add_l	arm_rot_l	arm_flex_r	arm_add_r	arm_rot_r	elbow_flex_l	elbow_flex_r	pro_sup_l	pro_sup_r	glut_med1_l/activation	glut_med2_l/activation	glut_med3_l/activation	glut_min1_l/activation	glut_min2_l/activation	glut_min3_l/activation	semimem_l/activation	semiten_l/activation	bifemlh_l/activation	bifemsh_l/activation	sar_l/activation	add_long_l/activation	add_brev_l/activation	add_mag1_l/activation	add_mag2_l/activation	add_mag3_l/activation	tfl_l/activation	pect_l/activation	grac_l/activation	glut_max1_l/activation	glut_max2_l/activation	glut_max3_l/activation	iliacus_l/activation	psoas_l/activation	quad_fem_l/activation	gem_l/activation	peri_l/activation	rect_fem_l/activation	vas_med_l/activation	vas_int_l/activation	vas_lat_l/activation	med_gas_l/activation	lat_gas_l/activation	soleus_l/activation	tib_post_l/activation	flex_dig_l/activation	flex_hal_l/activation	tib_ant_l/activation	per_brev_l/activation	per_long_l/activation	per_tert_l/activation	ext_dig_l/activation	ext_hal_l/activation	ercspn_l/activation	intobl_l/activation	extobl_l/activation	glut_med1_r/activation	glut_med2_r/activation	glut_med3_r/activation	glut_min1_r/activation	glut_min2_r/activation	glut_min3_r/activation	semimem_r/activation	semiten_r/activation	bifemlh_r/activation	bifemsh_r/activation	sar_r/activation	add_long_r/activation	add_brev_r/activation	add_mag1_r/activation	add_mag2_r/activation	add_mag3_r/activation	tfl_r/activation	pect_r/activation	grac_r/activation	glut_max1_r/activation	glut_max2_r/activation	glut_max3_r/activation	iliacus_r/activation	psoas_r/activation	quad_fem_r/activation	gem_r/activation	peri_r/activation	rect_fem_r/activation	vas_med_r/activation	vas_int_r/activation	vas_lat_r/activation	med_gas_r/activation	lat_gas_r/activation	soleus_r/activation	tib_post_r/activation	flex_dig_r/activation	flex_hal_r/activation	tib_ant_r/activation	per_brev_r/activation	per_long_r/activation	per_tert_r/activation	ext_dig_r/activation	ext_hal_r/activation	ercspn_r/activation	intobl_r/activation	extobl_r/activation
1.6	-8.36503129	-2.80486766	1.93201768	-0.70473612	1.66769855	-0.60597405	16.02873541	-7.94926955	-10.64593073	16.09583336	-2.16945166	-15.13811489	-42.95932659	-3.44588243	-41.14562603	-7.49768719	-18.46359359	-18.74251266	-5.44611959	9.81181855	-0.1162451	-0.09365441	-16.92352854	-1.50522558	0.1406495	55.71537947	-14.89610254	47.37154888	37.5977399	-33.68363995	20.32598552	104.8788422	120.6831259	126.42267	133.6552937	0.02419951	0.01077599	0.00207963	0.00384883	0.0051779	0.00445466	0.00362765	0.00590631	0.00668373	0.00195021	0.00055872	0.00027261	0.00130959	0.00296467	0.00515495	0.01463425	0.0006187	0.0012365	0.00274489	0.00393976	0.00595384	0.01002004	0.00011888	0.0001243	0.00096104	0.00157457	0.00157837	0.00005343	0.0003688	0.00033306	0.000236	0.0010043	0.00892674	0.00004445	0.00005178	0.00025551	0.00028237	0.01317062	0.01061172	0.03620675	0.01028268	0.03004241	0.004613	0.00002912	0.0207523	0.01916954	0.00014528	0.00164226	0.02579855	0.00048791	0.00073409	0.00172519	0.00253241	0.00288994	0.00824112	0.00280986	0.00055666	0.00040159	0.00137177	0.00409156	0.00287609	0.00168753	0.00063059	0.00147657	0.00288329	0.00356413	0.00635403	0.01903972	0.00014667	0.00014995	0.00716393	0.0029558	0.01000165	0.000052	0.0002481	0.00022443	0.00015694	0.00020172	0.00739695	0.0000629	0.00286617	0.00220509	0.00164906	0.02706444	0.00055232	0.00024109	0.00199559	0.00736865	0.00403448	0.00003529	0.00460872	0.06306175
1.62	-9.20610332	-2.77346858	1.48568669	-0.70217126	1.68638395	-0.6046538	21.74461879	-8.34850631	-12.79369952	21.74482794	-2.63674809	-16.43156196	-49.73501662	-4.87415393	-47.90389717	-9.09284364	-19.92905239	-18.4612049	-6.39920746	8.05976867	-0.02414643	0.02012658	-17.70417977	-1.74948919	1.24488015	61.46046638	-15.64570796	47.31910632	38.5711763	-38.39502396	18.78974828	106.5666064	120.4290943	125.3928504	133.6486561	0.01656504	0.00732223	0.00146337	0.00559455	0.00462476	0.00345553	0.0025649	0.00402752	0.00450388	0.00209354	0.00220312	0.00522715	0.00299947	0.00268237	0.00390438	0.00987515	0.0029944	0.00300704	0.00289395	0.00294854	0.00406559	0.00673863	0.00586064	0.00554654	0.00091826	0.00209423	0.00133102	0.00073984	0.00044406	0.0003986	0.00028284	0.00074269	0.01183168	0.00006952	0.000087	0.00043068	0.00046236	0.00935572	0.01831304	0.02774208	0.01289711	0.03166523	0.00493034	0.000101	0.01397305	0.0128233	0.00014375	0.00117707	0.01736183	0.00052599	0.00071349	0.00138458	0.00179602	0.0020043	0.00554348	0.00297834	0.00473623	0.00150686	0.00195337	0.0035583	0.00226896	0.00119819	0.001525	0.00303392	0.0027332	0.00259856	0.00432592	0.0127655	0.00254904	0.00297699	0.01116195	0.00436617	0.00768098	0.00087914	0.0003851	0.00034374	0.00024201	0.00023327	0.00519069	0.00008208	0.00461021	0.00316445	0.00239089	0.02656656	0.0006802	0.00029692	0.00274309	0.00817605	0.00504923	0.00046998	0.00311784	0.04214361
1.64	-10.6066874	-2.7736179	1.14153549	-0.6963292	1.70013178	-0.60347589	27.30352408	-8.7106324	-14.59504333	27.14044226	-3.01864857	-17.88698894	-55.08803518	-6.42340563	-53.15956033	-10.73967809	-20.34122323	-17.20500726	-6.48669134	7.37680234	0.06585113	0.08679415	-17.34090725	-1.98598341	2.39530569	64.36703557	-16.67494902	47.53035771	35.58666816	-42.75446248	15.19535756	106.8760942	120.3999227	124.5100479	133.5097232	0.02734013	0.00514088	0.00105014	0.00748695	0.00509668	0.00296133	0.00179067	0.00274162	0.00303738	0.00153188	0.00194112	0.00454896	0.00388294	0.00313707	0.00461664	0.00707169	0.00305159	0.00342965	0.00250818	0.00240884	0.00283117	0.00457706	0.00552784	0.00520314	0.00077915	0.00204484	0.00107144	0.00210168	0.00474088	0.00497253	0.00588762	0.00057553	0.00930883	0.00008161	0.00010989	0.00054629	0.00057112	0.00643906	0.01501669	0.02670037	0.01014106	0.02175066	0.00424953	0.00010679	0.02925053	0.00858594	0.00012573	0.00084693	0.01230098	0.0004621	0.00061095	0.00109123	0.00125487	0.0013818	0.00372961	0.00219032	0.0054417	0.00132372	0.00177597	0.0031686	0.00181266	0.00086059	0.00143735	0.00305697	0.00221834	0.00191146	0.00296348	0.00861576	0.00247833	0.00287866	0.01781572	0.0051952	0.01662869	0.00789546	0.00092605	0.00081984	0.00060091	0.00019461	0.00360608	0.00007449	0.01031421	0.00379039	0.0027113	0.03151641	0.00059173	0.00025886	0.00281169	0.00851307	0.00553759	0.00043041	0.00209843	0.05819154
1.66	-11.65056557	-2.80248349	0.86510101	-0.68807969	1.71060252	-0.60251684	31.82526823	-9.02210627	-16.08651144	31.44547387	-3.32028975	-19.19396531	-59.16279186	-7.95397778	-57.13286959	-12.2156558	-20.00043679	-15.08080055	-6.12043356	8.08690225	0.19952018	0.20339641	-17.07572328	-2.1639483	3.68650793	65.70454913	-17.80884626	48.02855902	29.72562128	-46.78264171	9.67228691	106.4909503	120.3970028	123.8314068	133.2031201	0.03818896	0.00444054	0.00081724	0.01028082	0.00742916	0.00327279	0.00124433	0.00186629	0.00205183	0.00110322	0.00174175	0.00312971	0.00275416	0.00234535	0.0034047	0.0049258	0.00384135	0.00323186	0.00191325	0.00231088	0.00207334	0.00313874	0.00463179	0.00428028	0.00067227	0.00196351	0.0009394	0.01684898	0.02866461	0.03286286	0.04524283	0.00047301	0.00636852	0.00009163	0.00012652	0.00062951	0.00065564	0.00444161	0.01282569	0.02305368	0.00868057	0.017791	0.00389398	0.00010589	0.03368374	0.00574663	0.00011212	0.00061538	0.00837216	0.00040556	0.00052298	0.00085908	0.00087657	0.00095633	0.00251273	0.00157015	0.00581996	0.00158864	0.00244449	0.00470217	0.00170173	0.00064385	0.00122565	0.00335096	0.00181362	0.00139826	0.0020377	0.00589673	0.00289621	0.0034525	0.02442919	0.0057143	0.0135372	0.02908289	0.01699626	0.01971511	0.02752701	0.00015553	0.00254909	0.00006399	0.01452204	0.0041861	0.00284746	0.03413763	0.0004966	0.00021813	0.00291515	0.01120659	0.00647273	0.00070306	0.00141216	0.04296411
